<svg width="150" height="14" viewBox="0 0 150 14" fill="none" xmlns="http://www.w3.org/2000/svg">
<path d="M4.80562 2.04192C5.43985 0.506859 7.56015 0.50686 8.19438 2.04192L8.63614 3.11115C8.89588 3.7398 9.46613 4.17561 10.1275 4.25092L11.3603 4.3913C12.9171 4.56857 13.5602 6.53331 12.4232 7.6388L11.3765 8.65647C10.9163 9.10391 10.7129 9.7629 10.8383 10.4006L11.091 11.686C11.4109 13.3132 9.67609 14.5417 8.30686 13.6577L7.48012 13.1239C6.88107 12.7371 6.11893 12.7371 5.51988 13.1239L4.69314 13.6577C3.32391 14.5417 1.58911 13.3132 1.909 11.686L2.16172 10.4006C2.28708 9.7629 2.08374 9.10391 1.62354 8.65647L0.576848 7.6388C-0.560169 6.53331 0.0828505 4.56857 1.63969 4.3913L2.87247 4.25092C3.53387 4.17561 4.10412 3.7398 4.36386 3.11115L4.80562 2.04192Z" fill="#FDD65E"/>
<path d="M23.184 2.98512L18 8.99262L18.3375 10.4641H22.9545V12.5026H24.939V10.4641H26.208V8.77662H24.939V2.98512H23.184ZM22.9545 8.77662H20.4435L22.9545 5.83362V8.77662Z" fill="black"/>
<path d="M29.9131 12.5026V10.3426H27.7261V12.5026H29.9131Z" fill="black"/>
<path d="M38.9599 7.49412C38.9599 7.02612 38.9329 6.60763 38.8789 6.23863C38.8249 5.86963 38.7484 5.54113 38.6494 5.25313C38.5504 4.96513 38.4334 4.71312 38.2984 4.49712C38.1634 4.28112 38.0104 4.08762 37.8394 3.91662C37.6594 3.73662 37.4749 3.58362 37.2859 3.45762C37.0969 3.32262 36.8944 3.21462 36.6784 3.13363C36.4624 3.05263 36.2239 2.99413 35.9629 2.95812C35.7109 2.91312 35.4274 2.89062 35.1124 2.89062C34.5814 2.89062 34.0909 2.97612 33.6409 3.14712C33.1999 3.30912 32.8219 3.53863 32.5069 3.83562C32.1919 4.13262 31.9444 4.48362 31.7644 4.88863C31.5934 5.29362 31.5079 5.73462 31.5079 6.21162C31.5079 6.69762 31.5844 7.12962 31.7374 7.50763C31.8994 7.88562 32.1289 8.20513 32.4259 8.46613C32.7229 8.72713 33.0784 8.92963 33.4924 9.07363C33.9064 9.20863 34.3699 9.27612 34.8829 9.27612C35.2969 9.27612 35.6614 9.21763 35.9764 9.10063C36.2914 8.98362 36.5659 8.82613 36.7999 8.62813C36.7279 9.26713 36.5344 9.78463 36.2194 10.1806C35.9134 10.5766 35.4679 10.7746 34.8829 10.7746C34.4779 10.7746 34.1179 10.7116 33.8029 10.5856C33.4879 10.4506 33.1594 10.2436 32.8174 9.96462L31.7239 11.5441C32.1289 11.8771 32.5744 12.1471 33.0604 12.3541C33.5464 12.5611 34.1359 12.6646 34.8289 12.6646C35.5039 12.6646 36.0979 12.5386 36.6109 12.2866C37.1239 12.0346 37.5514 11.6836 37.8934 11.2336C38.2444 10.7836 38.5099 10.2436 38.6899 9.61363C38.8699 8.97463 38.9599 8.26813 38.9599 7.49412ZM36.8404 6.13062C36.8404 6.54462 36.6964 6.88662 36.4084 7.15662C36.1294 7.41762 35.7334 7.54812 35.2204 7.54812C34.7074 7.54812 34.3024 7.41762 34.0054 7.15662C33.7174 6.89563 33.5734 6.54912 33.5734 6.11712C33.5734 5.68512 33.7129 5.33862 33.9919 5.07763C34.2709 4.80762 34.6669 4.67262 35.1799 4.67262C35.7019 4.67262 36.1069 4.80762 36.3949 5.07763C36.6919 5.34762 36.8404 5.69862 36.8404 6.13062Z" fill="black"/>
<path d="M23.184 2.98512L18 8.99262L18.3375 10.4641H22.9545V12.5026H24.939V10.4641H26.208V8.77662H24.939V2.98512H23.184ZM22.9545 8.77662H20.4435L22.9545 5.83362V8.77662Z" stroke="black" stroke-width="0.5"/>
<path d="M29.9131 12.5026V10.3426H27.7261V12.5026H29.9131Z" stroke="black" stroke-width="0.5"/>
<path d="M38.9599 7.49412C38.9599 7.02612 38.9329 6.60763 38.8789 6.23863C38.8249 5.86963 38.7484 5.54113 38.6494 5.25313C38.5504 4.96513 38.4334 4.71312 38.2984 4.49712C38.1634 4.28112 38.0104 4.08762 37.8394 3.91662C37.6594 3.73662 37.4749 3.58362 37.2859 3.45762C37.0969 3.32262 36.8944 3.21462 36.6784 3.13363C36.4624 3.05263 36.2239 2.99413 35.9629 2.95812C35.7109 2.91312 35.4274 2.89062 35.1124 2.89062C34.5814 2.89062 34.0909 2.97612 33.6409 3.14712C33.1999 3.30912 32.8219 3.53863 32.5069 3.83562C32.1919 4.13262 31.9444 4.48362 31.7644 4.88863C31.5934 5.29362 31.5079 5.73462 31.5079 6.21162C31.5079 6.69762 31.5844 7.12962 31.7374 7.50763C31.8994 7.88562 32.1289 8.20513 32.4259 8.46613C32.7229 8.72713 33.0784 8.92963 33.4924 9.07363C33.9064 9.20863 34.3699 9.27612 34.8829 9.27612C35.2969 9.27612 35.6614 9.21763 35.9764 9.10063C36.2914 8.98362 36.5659 8.82613 36.7999 8.62813C36.7279 9.26713 36.5344 9.78463 36.2194 10.1806C35.9134 10.5766 35.4679 10.7746 34.8829 10.7746C34.4779 10.7746 34.1179 10.7116 33.8029 10.5856C33.4879 10.4506 33.1594 10.2436 32.8174 9.96462L31.7239 11.5441C32.1289 11.8771 32.5744 12.1471 33.0604 12.3541C33.5464 12.5611 34.1359 12.6646 34.8289 12.6646C35.5039 12.6646 36.0979 12.5386 36.6109 12.2866C37.1239 12.0346 37.5514 11.6836 37.8934 11.2336C38.2444 10.7836 38.5099 10.2436 38.6899 9.61363C38.8699 8.97463 38.9599 8.26813 38.9599 7.49412ZM36.8404 6.13062C36.8404 6.54462 36.6964 6.88662 36.4084 7.15662C36.1294 7.41762 35.7334 7.54812 35.2204 7.54812C34.7074 7.54812 34.3024 7.41762 34.0054 7.15662C33.7174 6.89563 33.5734 6.54912 33.5734 6.11712C33.5734 5.68512 33.7129 5.33862 33.9919 5.07763C34.2709 4.80762 34.6669 4.67262 35.1799 4.67262C35.7019 4.67262 36.1069 4.80762 36.3949 5.07763C36.6919 5.34762 36.8404 5.69862 36.8404 6.13062Z" stroke="black" stroke-width="0.5"/>
<path d="M48.644 3.45662L47.7395 2.09312C46.4885 2.76812 45.5525 3.57362 44.9315 4.50962C44.3105 5.44562 44 6.56613 44 7.87113C44 9.17613 44.3105 10.2966 44.9315 11.2326C45.5525 12.1686 46.4885 12.9741 47.7395 13.6491L48.644 12.2856C48.185 11.9706 47.789 11.6511 47.456 11.3271C47.132 11.0031 46.862 10.6656 46.646 10.3146C46.439 9.96362 46.286 9.59013 46.187 9.19413C46.088 8.78913 46.0385 8.34813 46.0385 7.87113C46.0385 7.39413 46.088 6.95763 46.187 6.56163C46.286 6.15662 46.439 5.77862 46.646 5.42762C46.862 5.07662 47.132 4.73912 47.456 4.41512C47.789 4.09112 48.185 3.77162 48.644 3.45662Z" fill="black" fill-opacity="0.4"/>
<path d="M50.4302 6.95312L51.6317 7.74963C51.8567 7.65063 52.0997 7.56963 52.3607 7.50663C52.6307 7.43463 52.9142 7.39862 53.2112 7.39862C53.7242 7.39862 54.1292 7.51112 54.4262 7.73612C54.7322 7.96113 54.8852 8.28062 54.8852 8.69462C54.8852 9.12662 54.7412 9.45513 54.4532 9.68013C54.1742 9.90513 53.7917 10.0176 53.3057 10.0176C52.8827 10.0176 52.4912 9.92763 52.1312 9.74763C51.7712 9.56763 51.4112 9.31563 51.0512 8.99163L49.7957 10.4901C50.2547 10.9311 50.7677 11.2776 51.3347 11.5296C51.9017 11.7816 52.5677 11.9076 53.3327 11.9076C53.8727 11.9076 54.3632 11.8311 54.8042 11.6781C55.2542 11.5251 55.6322 11.3091 55.9382 11.0301C56.2532 10.7421 56.4962 10.3956 56.6672 9.99063C56.8382 9.58563 56.9237 9.13113 56.9237 8.62713C56.9237 8.08713 56.8382 7.62813 56.6672 7.25013C56.4962 6.86313 56.2622 6.54812 55.9652 6.30512C55.6682 6.06212 55.3172 5.88213 54.9122 5.76513C54.5162 5.64812 54.0842 5.58962 53.6162 5.58962C53.3552 5.58962 53.1302 5.60762 52.9412 5.64363C52.7522 5.67062 52.5632 5.70662 52.3742 5.75162L52.4822 4.11813H56.5052V2.29562H50.7002L50.4302 6.95312Z" fill="black" fill-opacity="0.4"/>
<path d="M58.9336 6.95312L60.1351 7.74963C60.3601 7.65063 60.6031 7.56963 60.8641 7.50663C61.1341 7.43463 61.4176 7.39862 61.7146 7.39862C62.2276 7.39862 62.6326 7.51112 62.9296 7.73612C63.2356 7.96113 63.3886 8.28062 63.3886 8.69462C63.3886 9.12662 63.2446 9.45513 62.9566 9.68013C62.6776 9.90513 62.2951 10.0176 61.8091 10.0176C61.3861 10.0176 60.9946 9.92763 60.6346 9.74763C60.2746 9.56763 59.9146 9.31563 59.5546 8.99163L58.2991 10.4901C58.7581 10.9311 59.2711 11.2776 59.8381 11.5296C60.4051 11.7816 61.0711 11.9076 61.8361 11.9076C62.3761 11.9076 62.8666 11.8311 63.3076 11.6781C63.7576 11.5251 64.1356 11.3091 64.4416 11.0301C64.7566 10.7421 64.9996 10.3956 65.1706 9.99063C65.3416 9.58563 65.4271 9.13113 65.4271 8.62713C65.4271 8.08713 65.3416 7.62813 65.1706 7.25013C64.9996 6.86313 64.7656 6.54812 64.4686 6.30512C64.1716 6.06212 63.8206 5.88213 63.4156 5.76513C63.0196 5.64812 62.5876 5.58962 62.1196 5.58962C61.8586 5.58962 61.6336 5.60762 61.4446 5.64363C61.2556 5.67062 61.0666 5.70662 60.8776 5.75162L60.9856 4.11813H65.0086V2.29562H59.2036L58.9336 6.95312Z" fill="black" fill-opacity="0.4"/>
<path d="M67.1401 4.09112H71.5816L67.3561 11.7456H69.7051L73.9441 3.86162V2.29562H67.1401V4.09112Z" fill="black" fill-opacity="0.4"/>
<path d="M82.478 9.08612C82.478 8.51912 82.343 8.06912 82.073 7.73612C81.812 7.39413 81.4385 7.09713 80.9525 6.84513C81.3215 6.62013 81.614 6.34563 81.83 6.02163C82.046 5.69763 82.154 5.27913 82.154 4.76612C82.154 4.40612 82.073 4.06862 81.911 3.75363C81.758 3.42963 81.533 3.15062 81.236 2.91662C80.948 2.68262 80.597 2.49812 80.183 2.36312C79.778 2.22812 79.328 2.16062 78.833 2.16062C78.329 2.16062 77.8745 2.22812 77.4695 2.36312C77.0645 2.49812 76.7135 2.68262 76.4165 2.91662C76.1285 3.15062 75.9035 3.42963 75.7415 3.75363C75.5885 4.06862 75.512 4.40612 75.512 4.76612C75.512 5.27913 75.62 5.69763 75.836 6.02163C76.052 6.34563 76.3445 6.62013 76.7135 6.84513C76.2095 7.07913 75.827 7.37613 75.566 7.73612C75.314 8.08713 75.188 8.55513 75.188 9.14013C75.188 9.55413 75.278 9.93213 75.458 10.2741C75.647 10.6071 75.9035 10.8951 76.2275 11.1381C76.5515 11.3721 76.934 11.5566 77.375 11.6916C77.825 11.8176 78.311 11.8806 78.833 11.8806C79.355 11.8806 79.8365 11.8176 80.2775 11.6916C80.7275 11.5656 81.1145 11.3856 81.4385 11.1516C81.7625 10.9086 82.0145 10.6161 82.1945 10.2741C82.3835 9.92313 82.478 9.52713 82.478 9.08612ZM80.183 4.99563C80.183 5.33763 80.0615 5.61663 79.8185 5.83262C79.5755 6.04862 79.247 6.15662 78.833 6.15662C78.419 6.15662 78.0905 6.04862 77.8475 5.83262C77.6045 5.60762 77.483 5.32412 77.483 4.98212C77.483 4.68512 77.6 4.42862 77.834 4.21262C78.068 3.98763 78.401 3.87513 78.833 3.87513C79.265 3.87513 79.598 3.98763 79.832 4.21262C80.066 4.43762 80.183 4.69862 80.183 4.99563ZM80.4665 8.97813C80.4665 9.32013 80.3225 9.60363 80.0345 9.82863C79.7465 10.0536 79.346 10.1661 78.833 10.1661C78.32 10.1661 77.9195 10.0536 77.6315 9.82863C77.3435 9.60363 77.1995 9.32013 77.1995 8.97813C77.1995 8.60013 77.3525 8.31212 77.6585 8.11412C77.9645 7.90712 78.356 7.80363 78.833 7.80363C79.31 7.80363 79.7015 7.90712 80.0075 8.11412C80.3135 8.31212 80.4665 8.60013 80.4665 8.97813Z" fill="black" fill-opacity="0.4"/>
<path d="M96.4327 11.7456L94.1242 8.37063C94.7272 8.14563 95.2132 7.79463 95.5822 7.31763C95.9602 6.83162 96.1492 6.20612 96.1492 5.44113V5.41413C96.1492 4.43313 95.8342 3.66812 95.2042 3.11912C94.5832 2.57012 93.7102 2.29562 92.5852 2.29562H88.2652V11.7456H90.3442V8.72163H91.9777L94.0027 11.7456H96.4327ZM94.0432 5.54912C94.0432 5.95412 93.9037 6.27812 93.6247 6.52112C93.3547 6.76412 92.9632 6.88562 92.4502 6.88562H90.3442V4.17212H92.4097C92.9227 4.17212 93.3232 4.28462 93.6112 4.50962C93.8992 4.73462 94.0432 5.07212 94.0432 5.52213V5.54912Z" fill="black" fill-opacity="0.4"/>
<path d="M104.555 8.33012V8.30312C104.555 7.79013 104.483 7.29963 104.339 6.83162C104.204 6.35462 103.988 5.93613 103.691 5.57613C103.403 5.20713 103.039 4.91462 102.598 4.69863C102.157 4.48263 101.635 4.37463 101.032 4.37463C100.501 4.37463 100.015 4.47363 99.5736 4.67162C99.1416 4.86962 98.7681 5.13962 98.4531 5.48163C98.1381 5.82362 97.8906 6.22413 97.7106 6.68313C97.5396 7.14213 97.4541 7.62813 97.4541 8.14113V8.16813C97.4541 8.72613 97.5486 9.23462 97.7376 9.69362C97.9266 10.1436 98.1876 10.5351 98.5206 10.8681C98.8626 11.2011 99.2631 11.4576 99.7221 11.6376C100.19 11.8176 100.694 11.9076 101.234 11.9076C101.891 11.9076 102.463 11.7906 102.949 11.5566C103.435 11.3136 103.849 10.9806 104.191 10.5576L103.016 9.51813C102.728 9.77913 102.449 9.96812 102.179 10.0851C101.909 10.2021 101.603 10.2606 101.261 10.2606C100.802 10.2606 100.415 10.1436 100.1 9.90963C99.7941 9.66663 99.5916 9.31113 99.4926 8.84313H104.528C104.537 8.74413 104.542 8.65863 104.542 8.58663C104.551 8.51463 104.555 8.42912 104.555 8.33012ZM102.557 7.56063H99.4656C99.5466 7.09262 99.7176 6.71912 99.9786 6.44012C100.249 6.16112 100.6 6.02163 101.032 6.02163C101.464 6.02163 101.81 6.16563 102.071 6.45363C102.332 6.73263 102.494 7.10162 102.557 7.56063Z" fill="black" fill-opacity="0.4"/>
<path d="M112.996 4.50962H110.863L109.23 9.35613L107.61 4.50962H105.436L108.285 11.7996H110.148L112.996 4.50962Z" fill="black" fill-opacity="0.4"/>
<path d="M116.38 3.71312V1.89062H114.22V3.71312H116.38ZM116.326 11.7456V4.50962H114.274V11.7456H116.326Z" fill="black" fill-opacity="0.4"/>
<path d="M125.003 8.33012V8.30312C125.003 7.79013 124.931 7.29963 124.787 6.83162C124.652 6.35462 124.436 5.93613 124.139 5.57613C123.851 5.20713 123.486 4.91462 123.045 4.69863C122.604 4.48263 122.082 4.37463 121.479 4.37463C120.948 4.37463 120.462 4.47363 120.021 4.67162C119.589 4.86962 119.216 5.13962 118.901 5.48163C118.586 5.82362 118.338 6.22413 118.158 6.68313C117.987 7.14213 117.902 7.62813 117.902 8.14113V8.16813C117.902 8.72613 117.996 9.23462 118.185 9.69362C118.374 10.1436 118.635 10.5351 118.968 10.8681C119.31 11.2011 119.711 11.4576 120.17 11.6376C120.638 11.8176 121.142 11.9076 121.682 11.9076C122.339 11.9076 122.91 11.7906 123.396 11.5566C123.882 11.3136 124.296 10.9806 124.638 10.5576L123.464 9.51813C123.176 9.77913 122.897 9.96812 122.627 10.0851C122.357 10.2021 122.051 10.2606 121.709 10.2606C121.25 10.2606 120.863 10.1436 120.548 9.90963C120.242 9.66663 120.039 9.31113 119.94 8.84313H124.976C124.985 8.74413 124.989 8.65863 124.989 8.58663C124.998 8.51463 125.003 8.42912 125.003 8.33012ZM123.005 7.56063H119.913C119.994 7.09262 120.165 6.71912 120.426 6.44012C120.696 6.16112 121.047 6.02163 121.479 6.02163C121.911 6.02163 122.258 6.16563 122.519 6.45363C122.78 6.73263 122.942 7.10162 123.005 7.56063Z" fill="black" fill-opacity="0.4"/>
<path d="M136.914 4.50962H134.875L133.687 8.91062L132.31 4.48262H130.542L129.178 8.89713L128.017 4.50962H125.938L128.166 11.7996H130.002L131.419 7.35813L132.81 11.7996H134.659L136.914 4.50962Z" fill="black" fill-opacity="0.4"/>
<path d="M143.466 9.54513V9.51813C143.466 9.18513 143.398 8.90163 143.263 8.66762C143.128 8.43363 142.957 8.23563 142.75 8.07363C142.543 7.91163 142.309 7.77662 142.048 7.66862C141.787 7.55162 141.531 7.45263 141.279 7.37163C141.081 7.30863 140.892 7.24562 140.712 7.18262C140.541 7.11962 140.388 7.05662 140.253 6.99362C140.118 6.92162 140.01 6.84963 139.929 6.77763C139.848 6.69663 139.807 6.60663 139.807 6.50763V6.48063C139.807 6.33663 139.87 6.21963 139.996 6.12963C140.122 6.03063 140.311 5.98112 140.563 5.98112C140.824 5.98112 141.126 6.04413 141.468 6.17013C141.81 6.28713 142.161 6.44913 142.521 6.65613L143.304 5.23863C142.908 4.97762 142.471 4.77512 141.994 4.63113C141.526 4.47813 141.063 4.40162 140.604 4.40162C140.235 4.40162 139.888 4.45112 139.564 4.55012C139.249 4.64912 138.97 4.79763 138.727 4.99563C138.493 5.19363 138.304 5.43663 138.16 5.72463C138.025 6.00363 137.958 6.32763 137.958 6.69663V6.72363C137.958 7.07463 138.021 7.37163 138.147 7.61462C138.282 7.85763 138.453 8.06462 138.66 8.23562C138.867 8.39762 139.096 8.53262 139.348 8.64062C139.609 8.73962 139.866 8.82513 140.118 8.89713C140.316 8.96013 140.505 9.01863 140.685 9.07263C140.865 9.12663 141.022 9.18513 141.157 9.24813C141.301 9.30213 141.414 9.36963 141.495 9.45063C141.576 9.53163 141.616 9.62613 141.616 9.73413V9.76113C141.616 9.92313 141.544 10.0536 141.4 10.1526C141.265 10.2516 141.049 10.3011 140.752 10.3011C140.41 10.3011 140.041 10.2291 139.645 10.0851C139.258 9.94112 138.867 9.72513 138.471 9.43713L137.593 10.7871C138.079 11.1651 138.588 11.4441 139.119 11.6241C139.659 11.7951 140.185 11.8806 140.698 11.8806C141.085 11.8806 141.445 11.8356 141.778 11.7456C142.12 11.6466 142.417 11.5026 142.669 11.3136C142.921 11.1246 143.115 10.8861 143.25 10.5981C143.394 10.3011 143.466 9.95012 143.466 9.54513Z" fill="black" fill-opacity="0.4"/>
<path d="M149.229 7.87113C149.229 6.56613 148.919 5.44562 148.298 4.50962C147.677 3.57362 146.741 2.76812 145.49 2.09312L144.585 3.45662C145.044 3.77162 145.436 4.09112 145.76 4.41512C146.093 4.73912 146.363 5.07662 146.57 5.42762C146.786 5.77862 146.943 6.15662 147.042 6.56163C147.141 6.95763 147.191 7.39413 147.191 7.87113C147.191 8.34813 147.141 8.78913 147.042 9.19413C146.943 9.59013 146.786 9.96362 146.57 10.3146C146.363 10.6656 146.093 11.0031 145.76 11.3271C145.436 11.6511 145.044 11.9706 144.585 12.2856L145.49 13.6491C146.741 12.9741 147.677 12.1686 148.298 11.2326C148.919 10.2966 149.229 9.17613 149.229 7.87113Z" fill="black" fill-opacity="0.4"/>
</svg>
