<svg width="150" height="14" viewBox="0 0 150 14" fill="none" xmlns="http://www.w3.org/2000/svg">
<path d="M4.80562 2.04192C5.43985 0.506859 7.56015 0.50686 8.19438 2.04192L8.63614 3.11115C8.89588 3.7398 9.46613 4.17561 10.1275 4.25092L11.3603 4.3913C12.9171 4.56857 13.5602 6.53331 12.4232 7.6388L11.3765 8.65647C10.9163 9.10391 10.7129 9.7629 10.8383 10.4006L11.091 11.686C11.4109 13.3132 9.67609 14.5417 8.30686 13.6577L7.48012 13.1239C6.88107 12.7371 6.11893 12.7371 5.51988 13.1239L4.69314 13.6577C3.32391 14.5417 1.58911 13.3132 1.909 11.686L2.16172 10.4006C2.28708 9.7629 2.08374 9.10391 1.62354 8.65647L0.576848 7.6388C-0.560169 6.53331 0.0828505 4.56857 1.63969 4.3913L2.87247 4.25092C3.53387 4.17561 4.10412 3.7398 4.36386 3.11115L4.80562 2.04192Z" fill="#FDD65E"/>
<path d="M23.184 2.95812L18 8.96563L18.3375 10.4371H22.9545V12.4756H24.939V10.4371H26.208V8.74963H24.939V2.95812H23.184ZM22.9545 8.74963H20.4435L22.9545 5.80663V8.74963Z" fill="black"/>
<path d="M29.9131 12.4756V10.3156H27.7261V12.4756H29.9131Z" fill="black"/>
<path d="M38.6494 9.81613C38.6494 9.24913 38.5144 8.79913 38.2444 8.46613C37.9834 8.12413 37.6099 7.82713 37.1239 7.57513C37.4929 7.35013 37.7854 7.07563 38.0014 6.75163C38.2174 6.42763 38.3254 6.00913 38.3254 5.49613C38.3254 5.13613 38.2444 4.79863 38.0824 4.48363C37.9294 4.15963 37.7044 3.88063 37.4074 3.64662C37.1194 3.41263 36.7684 3.22813 36.3544 3.09312C35.9494 2.95812 35.4994 2.89062 35.0044 2.89062C34.5004 2.89062 34.0459 2.95812 33.6409 3.09312C33.2359 3.22813 32.8849 3.41263 32.5879 3.64662C32.2999 3.88063 32.0749 4.15963 31.9129 4.48363C31.7599 4.79863 31.6834 5.13613 31.6834 5.49613C31.6834 6.00913 31.7914 6.42763 32.0074 6.75163C32.2234 7.07563 32.5159 7.35013 32.8849 7.57513C32.3809 7.80912 31.9984 8.10612 31.7374 8.46613C31.4854 8.81712 31.3594 9.28513 31.3594 9.87013C31.3594 10.2841 31.4494 10.6621 31.6294 11.0041C31.8184 11.3371 32.0749 11.6251 32.3989 11.8681C32.7229 12.1021 33.1054 12.2866 33.5464 12.4216C33.9964 12.5476 34.4824 12.6106 35.0044 12.6106C35.5264 12.6106 36.0079 12.5476 36.4489 12.4216C36.8989 12.2956 37.2859 12.1156 37.6099 11.8816C37.9339 11.6386 38.1859 11.3461 38.3659 11.0041C38.5549 10.6531 38.6494 10.2571 38.6494 9.81613ZM36.3544 5.72563C36.3544 6.06763 36.2329 6.34663 35.9899 6.56263C35.7469 6.77863 35.4184 6.88663 35.0044 6.88663C34.5904 6.88663 34.2619 6.77863 34.0189 6.56263C33.7759 6.33763 33.6544 6.05413 33.6544 5.71212C33.6544 5.41512 33.7714 5.15862 34.0054 4.94263C34.2394 4.71763 34.5724 4.60513 35.0044 4.60513C35.4364 4.60513 35.7694 4.71763 36.0034 4.94263C36.2374 5.16762 36.3544 5.42863 36.3544 5.72563ZM36.6379 9.70813C36.6379 10.0501 36.4939 10.3336 36.2059 10.5586C35.9179 10.7836 35.5174 10.8961 35.0044 10.8961C34.4914 10.8961 34.0909 10.7836 33.8029 10.5586C33.5149 10.3336 33.3709 10.0501 33.3709 9.70813C33.3709 9.33013 33.5239 9.04213 33.8299 8.84413C34.1359 8.63713 34.5274 8.53363 35.0044 8.53363C35.4814 8.53363 35.8729 8.63713 36.1789 8.84413C36.4849 9.04213 36.6379 9.33013 36.6379 9.70813Z" fill="black"/>
<path d="M23.184 2.95812L18 8.96563L18.3375 10.4371H22.9545V12.4756H24.939V10.4371H26.208V8.74963H24.939V2.95812H23.184ZM22.9545 8.74963H20.4435L22.9545 5.80663V8.74963Z" stroke="black" stroke-width="0.5"/>
<path d="M29.9131 12.4756V10.3156H27.7261V12.4756H29.9131Z" stroke="black" stroke-width="0.5"/>
<path d="M38.6494 9.81613C38.6494 9.24913 38.5144 8.79913 38.2444 8.46613C37.9834 8.12413 37.6099 7.82713 37.1239 7.57513C37.4929 7.35013 37.7854 7.07563 38.0014 6.75163C38.2174 6.42763 38.3254 6.00913 38.3254 5.49613C38.3254 5.13613 38.2444 4.79863 38.0824 4.48363C37.9294 4.15963 37.7044 3.88063 37.4074 3.64662C37.1194 3.41263 36.7684 3.22813 36.3544 3.09312C35.9494 2.95812 35.4994 2.89062 35.0044 2.89062C34.5004 2.89062 34.0459 2.95812 33.6409 3.09312C33.2359 3.22813 32.8849 3.41263 32.5879 3.64662C32.2999 3.88063 32.0749 4.15963 31.9129 4.48363C31.7599 4.79863 31.6834 5.13613 31.6834 5.49613C31.6834 6.00913 31.7914 6.42763 32.0074 6.75163C32.2234 7.07563 32.5159 7.35013 32.8849 7.57513C32.3809 7.80912 31.9984 8.10612 31.7374 8.46613C31.4854 8.81712 31.3594 9.28513 31.3594 9.87013C31.3594 10.2841 31.4494 10.6621 31.6294 11.0041C31.8184 11.3371 32.0749 11.6251 32.3989 11.8681C32.7229 12.1021 33.1054 12.2866 33.5464 12.4216C33.9964 12.5476 34.4824 12.6106 35.0044 12.6106C35.5264 12.6106 36.0079 12.5476 36.4489 12.4216C36.8989 12.2956 37.2859 12.1156 37.6099 11.8816C37.9339 11.6386 38.1859 11.3461 38.3659 11.0041C38.5549 10.6531 38.6494 10.2571 38.6494 9.81613ZM36.3544 5.72563C36.3544 6.06763 36.2329 6.34663 35.9899 6.56263C35.7469 6.77863 35.4184 6.88663 35.0044 6.88663C34.5904 6.88663 34.2619 6.77863 34.0189 6.56263C33.7759 6.33763 33.6544 6.05413 33.6544 5.71212C33.6544 5.41512 33.7714 5.15862 34.0054 4.94263C34.2394 4.71763 34.5724 4.60513 35.0044 4.60513C35.4364 4.60513 35.7694 4.71763 36.0034 4.94263C36.2374 5.16762 36.3544 5.42863 36.3544 5.72563ZM36.6379 9.70813C36.6379 10.0501 36.4939 10.3336 36.2059 10.5586C35.9179 10.7836 35.5174 10.8961 35.0044 10.8961C34.4914 10.8961 34.0909 10.7836 33.8029 10.5586C33.5149 10.3336 33.3709 10.0501 33.3709 9.70813C33.3709 9.33013 33.5239 9.04213 33.8299 8.84413C34.1359 8.63713 34.5274 8.53363 35.0044 8.53363C35.4814 8.53363 35.8729 8.63713 36.1789 8.84413C36.4849 9.04213 36.6379 9.33013 36.6379 9.70813Z" stroke="black" stroke-width="0.5"/>
<path d="M48.2924 3.45662L47.3879 2.09312C46.1369 2.76812 45.2009 3.57362 44.5799 4.50962C43.9589 5.44562 43.6484 6.56613 43.6484 7.87113C43.6484 9.17613 43.9589 10.2966 44.5799 11.2326C45.2009 12.1686 46.1369 12.9741 47.3879 13.6491L48.2924 12.2856C47.8334 11.9706 47.4374 11.6511 47.1044 11.3271C46.7804 11.0031 46.5104 10.6656 46.2944 10.3146C46.0874 9.96362 45.9344 9.59013 45.8354 9.19413C45.7364 8.78913 45.6869 8.34813 45.6869 7.87113C45.6869 7.39413 45.7364 6.95763 45.8354 6.56163C45.9344 6.15662 46.0874 5.77862 46.2944 5.42762C46.5104 5.07662 46.7804 4.73912 47.1044 4.41512C47.4374 4.09112 47.8334 3.77162 48.2924 3.45662Z" fill="black" fill-opacity="0.4"/>
<path d="M53.0352 4.02362C53.4132 4.02362 53.7192 4.12713 53.9532 4.33413C54.1872 4.54113 54.3042 4.84712 54.3042 5.25212C54.3042 5.45012 54.2727 5.63463 54.2097 5.80562C54.1557 5.96763 54.0612 6.13862 53.9262 6.31862C53.8002 6.48962 53.6337 6.67412 53.4267 6.87212C53.2197 7.06112 52.9677 7.27713 52.6707 7.52012L49.5252 10.0986V11.7456H56.5182V9.95013H52.4007L53.9397 8.76213C54.3537 8.43813 54.7182 8.14113 55.0332 7.87113C55.3482 7.59213 55.6047 7.31313 55.8027 7.03413C56.0097 6.75513 56.1627 6.46262 56.2617 6.15662C56.3697 5.84162 56.4237 5.48612 56.4237 5.09012C56.4237 4.64912 56.3472 4.24862 56.1942 3.88863C56.0502 3.52862 55.8342 3.22262 55.5462 2.97062C55.2672 2.70962 54.9252 2.51163 54.5202 2.37663C54.1242 2.23262 53.6742 2.16062 53.1702 2.16062C52.7472 2.16062 52.3692 2.20562 52.0362 2.29562C51.7032 2.37662 51.3972 2.50262 51.1182 2.67362C50.8482 2.83562 50.5917 3.03812 50.3487 3.28112C50.1147 3.52412 49.8807 3.80312 49.6467 4.11813L51.1047 5.29262C51.4557 4.86062 51.7707 4.54113 52.0497 4.33413C52.3377 4.12713 52.6662 4.02362 53.0352 4.02362Z" fill="black" fill-opacity="0.4"/>
<path d="M58.4898 6.95312L59.6913 7.74963C59.9163 7.65063 60.1593 7.56963 60.4203 7.50663C60.6903 7.43463 60.9738 7.39862 61.2708 7.39862C61.7838 7.39862 62.1888 7.51112 62.4858 7.73612C62.7918 7.96113 62.9448 8.28062 62.9448 8.69462C62.9448 9.12662 62.8008 9.45513 62.5128 9.68013C62.2338 9.90513 61.8513 10.0176 61.3653 10.0176C60.9423 10.0176 60.5508 9.92763 60.1908 9.74763C59.8308 9.56763 59.4708 9.31563 59.1108 8.99163L57.8553 10.4901C58.3143 10.9311 58.8273 11.2776 59.3943 11.5296C59.9613 11.7816 60.6273 11.9076 61.3923 11.9076C61.9323 11.9076 62.4228 11.8311 62.8638 11.6781C63.3138 11.5251 63.6918 11.3091 63.9978 11.0301C64.3128 10.7421 64.5558 10.3956 64.7268 9.99063C64.8978 9.58563 64.9833 9.13113 64.9833 8.62713C64.9833 8.08713 64.8978 7.62813 64.7268 7.25013C64.5558 6.86313 64.3218 6.54812 64.0248 6.30512C63.7278 6.06212 63.3768 5.88213 62.9718 5.76513C62.5758 5.64812 62.1438 5.58962 61.6758 5.58962C61.4148 5.58962 61.1898 5.60762 61.0008 5.64363C60.8118 5.67062 60.6228 5.70662 60.4338 5.75162L60.5418 4.11813H64.5648V2.29562H58.7598L58.4898 6.95312Z" fill="black" fill-opacity="0.4"/>
<path d="M70.5572 4.07763L68.3027 6.34563L68.6267 7.66862H69.4907C70.0847 7.66862 70.5392 7.77213 70.8542 7.97913C71.1782 8.18613 71.3402 8.48763 71.3402 8.88363C71.3402 9.24363 71.2142 9.52713 70.9622 9.73413C70.7192 9.94113 70.3997 10.0446 70.0037 10.0446C69.5177 10.0446 69.0947 9.95013 68.7347 9.76113C68.3837 9.56312 68.0462 9.27962 67.7222 8.91062L66.2912 10.2741C66.6962 10.7601 67.1957 11.1561 67.7897 11.4621C68.3927 11.7591 69.1217 11.9076 69.9767 11.9076C70.4987 11.9076 70.9712 11.8311 71.3942 11.6781C71.8172 11.5251 72.1727 11.3091 72.4607 11.0301C72.7577 10.7511 72.9827 10.4226 73.1357 10.0446C73.2977 9.66663 73.3787 9.25263 73.3787 8.80263C73.3787 8.36163 73.3067 7.98813 73.1627 7.68213C73.0187 7.36713 72.8297 7.10613 72.5957 6.89913C72.3617 6.68313 72.0917 6.51662 71.7857 6.39962C71.4797 6.28262 71.1647 6.19713 70.8407 6.14313L73.2302 3.86162V2.29562H66.8447V4.07763H70.5572Z" fill="black" fill-opacity="0.4"/>
<path d="M81.993 3.17312C81.786 3.01112 81.5745 2.86712 81.3585 2.74112C81.1425 2.60612 80.9175 2.49362 80.6835 2.40362C80.4495 2.31362 80.1975 2.24612 79.9275 2.20113C79.6575 2.15613 79.3605 2.13363 79.0365 2.13363C78.3345 2.13363 77.7225 2.26862 77.2005 2.53862C76.6785 2.79962 76.2465 3.16412 75.9045 3.63213C75.5625 4.09113 75.306 4.63563 75.135 5.26562C74.973 5.89562 74.892 6.57512 74.892 7.30412C74.892 8.24913 74.991 9.00063 75.189 9.55863C75.396 10.1076 75.6705 10.5531 76.0125 10.8951C76.3455 11.2281 76.728 11.4801 77.16 11.6511C77.592 11.8221 78.1185 11.9076 78.7395 11.9076C79.2525 11.9076 79.7295 11.8311 80.1705 11.6781C80.6115 11.5161 80.9895 11.2911 81.3045 11.0031C81.6285 10.7061 81.8805 10.3596 82.0605 9.96362C82.2495 9.55862 82.344 9.11313 82.344 8.62713C82.344 8.13213 82.2585 7.69563 82.0875 7.31763C81.9165 6.93963 81.6825 6.62463 81.3855 6.37262C81.0885 6.12062 80.7375 5.93162 80.3325 5.80562C79.9275 5.67063 79.491 5.60313 79.023 5.60313C78.555 5.60313 78.168 5.66612 77.862 5.79212C77.565 5.91812 77.2995 6.05762 77.0655 6.21062C77.1015 5.90462 77.1645 5.61662 77.2545 5.34662C77.3445 5.07663 77.466 4.84712 77.619 4.65812C77.781 4.46012 77.97 4.30712 78.186 4.19913C78.411 4.08212 78.672 4.02362 78.969 4.02362C79.167 4.02362 79.3515 4.04162 79.5225 4.07763C79.6935 4.11363 79.8555 4.16313 80.0085 4.22612C80.1615 4.28913 80.31 4.37012 80.454 4.46912C80.598 4.55912 80.7465 4.66262 80.8995 4.77962L81.993 3.17312ZM80.2785 8.72163C80.2785 9.13563 80.1345 9.47313 79.8465 9.73413C79.5675 9.99513 79.1715 10.1256 78.6585 10.1256C78.1455 10.1256 77.7405 9.99513 77.4435 9.73413C77.1555 9.46413 77.0115 9.12213 77.0115 8.70813C77.0115 8.30313 77.151 7.97463 77.43 7.72263C77.718 7.46163 78.1185 7.33112 78.6315 7.33112C79.1445 7.33112 79.545 7.46163 79.833 7.72263C80.13 7.98363 80.2785 8.31663 80.2785 8.72163Z" fill="black" fill-opacity="0.4"/>
<path d="M96.4503 11.7456L94.1418 8.37063C94.7448 8.14563 95.2308 7.79463 95.5998 7.31763C95.9778 6.83162 96.1668 6.20612 96.1668 5.44113V5.41413C96.1668 4.43313 95.8518 3.66812 95.2218 3.11912C94.6008 2.57012 93.7278 2.29562 92.6028 2.29562H88.2828V11.7456H90.3618V8.72163H91.9953L94.0203 11.7456H96.4503ZM94.0608 5.54912C94.0608 5.95412 93.9213 6.27812 93.6423 6.52112C93.3723 6.76412 92.9808 6.88562 92.4678 6.88562H90.3618V4.17212H92.4273C92.9403 4.17212 93.3408 4.28462 93.6288 4.50962C93.9168 4.73462 94.0608 5.07212 94.0608 5.52213V5.54912Z" fill="black" fill-opacity="0.4"/>
<path d="M104.573 8.33012V8.30312C104.573 7.79013 104.501 7.29963 104.357 6.83162C104.222 6.35462 104.006 5.93613 103.709 5.57613C103.421 5.20713 103.056 4.91462 102.615 4.69863C102.174 4.48263 101.652 4.37463 101.049 4.37463C100.518 4.37463 100.032 4.47363 99.5912 4.67162C99.1592 4.86962 98.7857 5.13962 98.4707 5.48163C98.1557 5.82362 97.9082 6.22413 97.7282 6.68313C97.5572 7.14213 97.4717 7.62813 97.4717 8.14113V8.16813C97.4717 8.72613 97.5662 9.23462 97.7552 9.69362C97.9442 10.1436 98.2052 10.5351 98.5382 10.8681C98.8802 11.2011 99.2807 11.4576 99.7397 11.6376C100.208 11.8176 100.712 11.9076 101.252 11.9076C101.909 11.9076 102.48 11.7906 102.966 11.5566C103.452 11.3136 103.866 10.9806 104.208 10.5576L103.034 9.51813C102.746 9.77913 102.467 9.96812 102.197 10.0851C101.927 10.2021 101.621 10.2606 101.279 10.2606C100.82 10.2606 100.433 10.1436 100.118 9.90963C99.8117 9.66663 99.6092 9.31113 99.5102 8.84313H104.546C104.555 8.74413 104.559 8.65863 104.559 8.58663C104.568 8.51463 104.573 8.42912 104.573 8.33012ZM102.575 7.56063H99.4832C99.5642 7.09262 99.7352 6.71912 99.9962 6.44012C100.266 6.16112 100.617 6.02163 101.049 6.02163C101.481 6.02163 101.828 6.16563 102.089 6.45363C102.35 6.73263 102.512 7.10162 102.575 7.56063Z" fill="black" fill-opacity="0.4"/>
<path d="M113.014 4.50962H110.881L109.247 9.35613L107.627 4.50962H105.454L108.302 11.7996H110.165L113.014 4.50962Z" fill="black" fill-opacity="0.4"/>
<path d="M116.397 3.71312V1.89062H114.237V3.71312H116.397ZM116.343 11.7456V4.50962H114.291V11.7456H116.343Z" fill="black" fill-opacity="0.4"/>
<path d="M125.02 8.33012V8.30312C125.02 7.79013 124.948 7.29963 124.804 6.83162C124.669 6.35462 124.453 5.93613 124.156 5.57613C123.868 5.20713 123.504 4.91462 123.063 4.69863C122.622 4.48263 122.1 4.37463 121.497 4.37463C120.966 4.37463 120.48 4.47363 120.039 4.67162C119.607 4.86962 119.233 5.13962 118.918 5.48163C118.603 5.82362 118.356 6.22413 118.176 6.68313C118.005 7.14213 117.919 7.62813 117.919 8.14113V8.16813C117.919 8.72613 118.014 9.23462 118.203 9.69362C118.392 10.1436 118.653 10.5351 118.986 10.8681C119.328 11.2011 119.728 11.4576 120.187 11.6376C120.655 11.8176 121.159 11.9076 121.699 11.9076C122.356 11.9076 122.928 11.7906 123.414 11.5566C123.9 11.3136 124.314 10.9806 124.656 10.5576L123.481 9.51813C123.193 9.77913 122.914 9.96812 122.644 10.0851C122.374 10.2021 122.068 10.2606 121.726 10.2606C121.267 10.2606 120.88 10.1436 120.565 9.90963C120.259 9.66663 120.057 9.31113 119.958 8.84313H124.993C125.002 8.74413 125.007 8.65863 125.007 8.58663C125.016 8.51463 125.02 8.42912 125.02 8.33012ZM123.022 7.56063H119.931C120.012 7.09262 120.183 6.71912 120.444 6.44012C120.714 6.16112 121.065 6.02163 121.497 6.02163C121.929 6.02163 122.275 6.16563 122.536 6.45363C122.797 6.73263 122.959 7.10162 123.022 7.56063Z" fill="black" fill-opacity="0.4"/>
<path d="M136.931 4.50962H134.893L133.705 8.91062L132.328 4.48262H130.559L129.196 8.89713L128.035 4.50962H125.956L128.183 11.7996H130.019L131.437 7.35813L132.827 11.7996H134.677L136.931 4.50962Z" fill="black" fill-opacity="0.4"/>
<path d="M143.483 9.54513V9.51813C143.483 9.18513 143.416 8.90163 143.281 8.66762C143.146 8.43363 142.975 8.23563 142.768 8.07363C142.561 7.91163 142.327 7.77662 142.066 7.66862C141.805 7.55162 141.548 7.45263 141.296 7.37163C141.098 7.30863 140.909 7.24562 140.729 7.18262C140.558 7.11962 140.405 7.05662 140.27 6.99362C140.135 6.92162 140.027 6.84963 139.946 6.77763C139.865 6.69663 139.825 6.60663 139.825 6.50763V6.48063C139.825 6.33663 139.888 6.21963 140.014 6.12963C140.14 6.03063 140.329 5.98112 140.581 5.98112C140.842 5.98112 141.143 6.04413 141.485 6.17013C141.827 6.28713 142.178 6.44913 142.538 6.65613L143.321 5.23863C142.925 4.97762 142.489 4.77512 142.012 4.63113C141.544 4.47813 141.08 4.40162 140.621 4.40162C140.252 4.40162 139.906 4.45112 139.582 4.55012C139.267 4.64912 138.988 4.79763 138.745 4.99563C138.511 5.19363 138.322 5.43663 138.178 5.72463C138.043 6.00363 137.975 6.32763 137.975 6.69663V6.72363C137.975 7.07463 138.038 7.37163 138.164 7.61462C138.299 7.85763 138.47 8.06462 138.677 8.23562C138.884 8.39762 139.114 8.53262 139.366 8.64062C139.627 8.73962 139.883 8.82513 140.135 8.89713C140.333 8.96013 140.522 9.01863 140.702 9.07263C140.882 9.12663 141.04 9.18513 141.175 9.24813C141.319 9.30213 141.431 9.36963 141.512 9.45063C141.593 9.53163 141.634 9.62613 141.634 9.73413V9.76113C141.634 9.92313 141.562 10.0536 141.418 10.1526C141.283 10.2516 141.067 10.3011 140.77 10.3011C140.428 10.3011 140.059 10.2291 139.663 10.0851C139.276 9.94112 138.884 9.72513 138.488 9.43713L137.611 10.7871C138.097 11.1651 138.605 11.4441 139.136 11.6241C139.676 11.7951 140.203 11.8806 140.716 11.8806C141.103 11.8806 141.463 11.8356 141.796 11.7456C142.138 11.6466 142.435 11.5026 142.687 11.3136C142.939 11.1246 143.132 10.8861 143.267 10.5981C143.411 10.3011 143.483 9.95012 143.483 9.54513Z" fill="black" fill-opacity="0.4"/>
<path d="M149.247 7.87113C149.247 6.56613 148.937 5.44562 148.316 4.50962C147.695 3.57362 146.759 2.76812 145.508 2.09312L144.603 3.45662C145.062 3.77162 145.454 4.09112 145.778 4.41512C146.111 4.73912 146.381 5.07662 146.588 5.42762C146.804 5.77862 146.961 6.15662 147.06 6.56163C147.159 6.95763 147.209 7.39413 147.209 7.87113C147.209 8.34813 147.159 8.78913 147.06 9.19413C146.961 9.59013 146.804 9.96362 146.588 10.3146C146.381 10.6656 146.111 11.0031 145.778 11.3271C145.454 11.6511 145.062 11.9706 144.603 12.2856L145.508 13.6491C146.759 12.9741 147.695 12.1686 148.316 11.2326C148.937 10.2966 149.247 9.17613 149.247 7.87113Z" fill="black" fill-opacity="0.4"/>
</svg>
