<svg width="24" height="24" viewBox="0 0 24 24" fill="none" xmlns="http://www.w3.org/2000/svg">
<path d="M13.808 0.0481815C12.0304 0.216955 10.3748 0.821728 8.94434 1.825C8.27834 2.28912 7.31687 3.27364 6.8713 3.94873C6.09743 5.11139 5.67532 6.45221 5.67063 7.74614V8.10713L5.46896 8.18683C5.10313 8.32747 4.22139 8.80567 3.7852 9.09633C1.84349 10.3856 0.57716 12.1765 0.126909 14.2674C-0.00910483 14.905 -0.0184851 16.2505 0.108148 16.9209C0.352035 18.182 0.999271 19.5509 1.80128 20.4792L2.01703 20.7324L1.88101 20.8777C1.39324 21.3981 0.0753174 22.9499 0.0424865 23.0436C-0.0794567 23.3624 0.0706273 23.7515 0.370795 23.9062C0.55371 24 0.638132 24 5.5909 24C10.3561 24 10.6703 23.9953 11.3269 23.9062C13.8221 23.5734 15.8951 22.5701 17.4944 20.9246C18.4794 19.9119 19.136 18.7774 19.4877 17.5022C19.6191 17.0193 19.741 16.1989 19.741 15.7817V15.5144H21.6077C23.3336 15.5144 23.4837 15.5097 23.6338 15.4254C23.9527 15.2566 24.0934 14.83 23.934 14.5205C23.8918 14.4361 23.479 13.9345 23.0147 13.3954L22.1752 12.4156L22.3581 12.2093C23.0382 11.4357 23.6338 10.2074 23.8777 9.07758C24.0137 8.43999 24.0231 7.21169 23.9011 6.58817C23.5494 4.84886 22.6114 3.33458 21.148 2.15785C19.1829 0.577944 16.4438 -0.209667 13.808 0.0481815ZM15.7544 1.45463C17.7852 1.66091 19.5722 2.47665 20.8666 3.78933C22.6207 5.56615 23.0757 7.94773 22.0626 10.0621C21.8 10.6106 21.4904 11.07 21.0214 11.5998C20.5805 12.0968 20.5383 12.1671 20.5383 12.4109C20.5383 12.6359 20.6321 12.7812 21.209 13.4516C21.4435 13.7235 21.6639 13.9814 21.7015 14.0236C21.7671 14.1033 21.7155 14.108 20.6743 14.108H19.5722L19.4877 13.7657C18.8311 11.1826 16.5376 8.91818 13.5453 7.90085C12.3916 7.51173 11.2988 7.33827 9.91519 7.33827C8.8693 7.33358 8.46126 7.37109 7.57482 7.54924C7.32156 7.60081 7.10112 7.62894 7.08705 7.61487C7.03546 7.56799 7.21368 6.53191 7.33563 6.16154C7.64048 5.23798 8.10012 4.50193 8.85992 3.74714C9.90112 2.70168 11.2003 1.99846 12.7527 1.64216C13.0951 1.56246 13.4656 1.50151 14.0425 1.43588C14.3614 1.39837 15.3088 1.40775 15.7544 1.45463ZM10.8579 8.76816C12.6636 8.94162 14.3849 9.60265 15.6934 10.62C18.2167 12.589 19.014 15.6269 17.6961 18.2523C16.5283 20.573 14.0331 22.1716 11.0268 22.5232C10.5437 22.5795 9.65724 22.5936 6.33663 22.5936H2.24215L2.89877 21.8481C3.25991 21.4356 3.57884 21.0558 3.60698 20.9949C3.63981 20.9386 3.65388 20.7886 3.6445 20.648C3.62574 20.4182 3.60229 20.3807 3.16611 19.8932C2.2656 18.8899 1.76376 17.9429 1.51518 16.7802C1.39793 16.227 1.39324 15.0784 1.51049 14.5299C1.89039 12.7531 3.04416 11.1966 4.77951 10.1184C6.48202 9.05883 8.73328 8.56188 10.8579 8.76816Z" fill="#FF6838"/>
<path d="M5.21663 14.1918C4.03941 14.6137 3.94092 16.2171 5.05248 16.7656C5.43238 16.9531 5.91077 16.9531 6.29067 16.7656C6.79251 16.5171 7.05516 16.0905 7.05516 15.5139C7.05516 15.1154 6.95667 14.8481 6.70809 14.5622C6.3704 14.1824 5.70909 14.0137 5.21663 14.1918Z" fill="#FF6838"/>
<path d="M9.43538 14.1918C8.25816 14.6137 8.15967 16.2171 9.27123 16.7656C9.65113 16.9531 10.1295 16.9531 10.5094 16.7656C11.0113 16.5171 11.2739 16.0905 11.2739 15.5139C11.2739 15.1154 11.1754 14.8481 10.9268 14.5622C10.5891 14.1824 9.92784 14.0137 9.43538 14.1918Z" fill="#FF6838"/>
<path d="M13.658 14.1918C12.4808 14.6137 12.3823 16.2171 13.4939 16.7656C13.8738 16.9531 14.3522 16.9531 14.7321 16.7656C15.2339 16.5171 15.4966 16.0905 15.4966 15.5139C15.4966 15.1154 15.3981 14.8481 15.1495 14.5622C14.8118 14.1824 14.1505 14.0137 13.658 14.1918Z" fill="#FF6838"/>
</svg>
