<svg width="64" height="64" viewBox="0 0 64 64" fill="none" xmlns="http://www.w3.org/2000/svg">
<path d="M63.7578 47.9316C62.5365 43.8632 58.6719 40.1149 55.6073 38.0103C51.0451 34.8721 45.5847 33.3084 40.4561 31.3051L40.4572 31.3041C39.8971 31.0854 39.3233 30.8432 38.6886 30.5744C34.8805 28.9648 32.2031 26.7877 30.6031 25.2239C30.793 24.9221 31.0021 24.6266 31.2581 24.3685C32.5509 23.0671 32.3781 21.9908 32.1594 21.4649C31.8362 20.6884 31.1023 20.2436 30.3674 20.0846C30.4314 19.6249 30.4975 19.0361 30.4282 18.394C30.2906 17.115 29.2932 16.3203 27.8255 16.3203C27.4777 16.3203 27.2196 16.3651 27.1705 16.3736L26.0292 16.5849L26.3353 17.7049C26.475 18.2126 26.3577 18.6009 26.1028 19.3604C26.0377 19.5524 25.9694 19.7668 25.9022 19.9929C25.035 19.5641 24.0494 19.1182 23.6483 18.7108C23.6483 18.7108 23.9001 18.2606 23.5587 17.9107C23.2131 17.5694 22.1646 18.2755 20.4355 20.0153C18.7021 21.7551 18.0045 22.8111 18.3458 23.1567C18.6872 23.5087 19.1352 23.2506 19.1352 23.2506C19.3805 23.497 19.6418 23.9674 19.9032 24.4954C19.6194 24.5797 19.3101 24.6938 18.9634 24.8218C18.3714 25.0415 17.7005 25.289 17.2354 25.3413L15.293 25.5578L16.5271 27.0736C16.7213 27.3178 16.9794 27.8096 16.9495 28.0816C16.8919 28.5925 17.0807 28.9232 17.2482 29.112C17.4765 29.3659 17.7954 29.5067 18.1464 29.5067C18.4418 29.5067 18.7234 29.4075 19.0274 29.2411C19.037 29.3371 19.0498 29.4341 19.069 29.5302C19.1576 30.0027 19.5725 31.1024 21.4968 31.1024C22.667 31.1024 24.2297 30.7142 25.6185 30.2768C27.2377 32.039 29.3103 34.7654 30.8431 38.4647C31.1077 39.1005 31.3157 39.6605 31.5365 40.2226L31.5503 40.2087C33.5429 45.3896 35.1003 50.8671 38.2096 55.4869C40.2822 58.5707 43.8844 62.4662 48.0157 63.7494C48.6344 63.9414 49.9325 64.3244 50.8243 63.4326L63.4389 50.7551C64.3275 49.8601 63.9434 48.5577 63.7578 47.9316M26.6414 21.6207C26.8558 19.7326 27.7561 18.8537 27.3647 17.4243C27.3647 17.4243 27.5588 17.3881 27.8265 17.3881C28.3844 17.3881 29.2655 17.5438 29.369 18.5092C29.5183 19.8905 28.8804 21.0969 29.5055 21.0969C29.5258 21.0969 29.5482 21.0959 29.5716 21.0927C29.6282 21.0863 29.6847 21.0831 29.7434 21.0831C30.7588 21.0831 32.1146 21.9961 30.5028 23.6175C28.794 25.3402 28.4569 28.1072 28.4569 28.1072C28.4569 28.1072 25.9012 26.9178 27.2324 23.9407C27.2324 23.9407 28.5135 23.5055 28.0932 23.0799C27.6644 22.6564 26.4313 23.5023 26.6414 21.6207M21.4968 30.0379C20.7437 30.0379 20.2125 29.8448 20.1165 29.336C19.9128 28.2491 20.5603 27.0362 20.5603 27.0362C19.9 27.2357 18.5794 28.4421 18.1453 28.4421C18.0418 28.4421 17.9896 28.3728 18.0077 28.2043C18.108 27.3296 17.3538 26.4026 17.3538 26.4026C18.4792 26.2768 20.0984 25.4191 20.7213 25.4191C20.7405 25.4191 20.7576 25.4191 20.7747 25.4213C21.3581 25.4714 21.3667 26.3173 21.3667 26.3173C22.3192 25.8672 23.3059 25.673 24.1294 25.673C24.6841 25.673 25.1651 25.7616 25.5108 25.9173C25.6121 25.9621 25.7177 26.025 25.8244 26.0826C25.9844 27.2346 26.6382 28.0699 27.2537 28.5819C25.7316 29.1515 23.1096 30.0379 21.4968 30.0379M37.4758 36.3377L37.3008 37.0898L36.5584 37.2636L34.6149 38.5682L33.7594 36.4977L31.9375 38.3186C31.9034 38.2332 31.8671 38.1468 31.8298 38.0583C30.3354 34.454 28.3577 31.7467 26.7289 29.911C27.4415 29.6614 28.0399 29.4288 28.4292 29.272L29.3391 29.6944L29.5162 28.2373C29.5183 28.2235 29.6452 27.2698 30.09 26.2074C31.7797 27.8235 34.4752 29.9515 38.2747 31.5579C38.3761 31.6006 38.4753 31.6422 38.5713 31.6827L36.7355 33.5185L38.7814 34.374L37.4758 36.3377ZM46.5618 61.3857C43.8887 59.6715 41.6636 57.4485 39.9473 54.7775C44.9266 49.7961 49.9059 44.819 54.8851 39.8397C57.5561 41.5538 59.7791 43.7789 61.4954 46.4499C56.5161 51.4292 51.539 56.4064 46.5618 61.3857" fill="#FF6838"/>
<path d="M17.637 22.0337C17.8844 20.7708 9.20161 21.334 6.58076 21.7084C1.08839 22.4913 1.77427 28.8691 6.79516 25.4461C11.2656 22.3985 17.5612 22.4167 17.637 22.0337Z" fill="#FF6838"/>
<path d="M23.7197 11.1662C23.964 11.4723 28.2745 2.5804 26.8568 3.21614C25.5587 3.79962 23.5277 10.924 23.7197 11.1662Z" fill="#FF6838"/>
<path d="M20.4989 19.5746C20.8551 18.4407 14.6033 1.01109 12.8838 0.186542C11.1611 -0.642273 8.71306 0.957757 15.6593 11.8348C18.6343 16.493 19.8119 21.7496 20.4989 19.5746Z" fill="#FF6838"/>
<path d="M15.8928 23.7711C13.8426 24.1935 10.4655 27.6751 12.2639 27.0021C14.0592 26.3332 17.1824 23.5087 15.8928 23.7711Z" fill="#FF6838"/>
<path d="M22.4709 17.4279C23.8213 16.1468 27.1526 12.5382 25.4064 13.0065C24.0293 13.3798 21.1183 18.7058 22.4709 17.4279Z" fill="#FF6838"/>
<path d="M21.0754 6.68553C20.0588 8.01036 20.334 14.8947 21.1778 17.1508C22.0781 19.5583 22.0898 5.35751 21.0754 6.68553Z" fill="#FF6838"/>
<path d="M10.2152 19.5039C14.4212 17.5166 -2.03991 17.1955 0.212928 19.0889C2.46684 20.9865 8.36241 20.3807 10.2152 19.5039Z" fill="#FF6838"/>
<path d="M7.71361 28.7795C8.26089 28.7795 8.70456 28.1529 8.70456 27.38C8.70456 26.607 8.26089 25.9805 7.71361 25.9805C7.16632 25.9805 6.72266 26.607 6.72266 27.38C6.72266 28.1529 7.16632 28.7795 7.71361 28.7795Z" fill="#FF6838"/>
<path d="M25.7907 11.1215C26.057 11.1215 26.2729 10.7271 26.2729 10.2405C26.2729 9.75385 26.057 9.35938 25.7907 9.35938C25.5245 9.35938 25.3086 9.75385 25.3086 10.2405C25.3086 10.7271 25.5245 11.1215 25.7907 11.1215Z" fill="#FF6838"/>
<path d="M10.5789 27.8143C10.1117 28.1439 9.93144 28.6911 10.1746 29.0367C10.4189 29.3802 10.9971 29.393 11.4643 29.0634C11.9293 28.7338 12.1096 28.1866 11.8664 27.841C11.62 27.4953 11.0429 27.4847 10.5789 27.8143Z" fill="#FF6838"/>
<path d="M18.2021 4.11191C19.1529 4.11191 19.9237 3.59805 19.9237 2.96416C19.9237 2.33027 19.1529 1.81641 18.2021 1.81641C17.2513 1.81641 16.4805 2.33027 16.4805 2.96416C16.4805 3.59805 17.2513 4.11191 18.2021 4.11191Z" fill="#FF6838"/>
<path d="M23.4127 5.21383C23.8952 5.21383 24.2863 4.9526 24.2863 4.63035C24.2863 4.30811 23.8952 4.04688 23.4127 4.04688C22.9302 4.04688 22.5391 4.30811 22.5391 4.63035C22.5391 4.9526 22.9302 5.21383 23.4127 5.21383Z" fill="#FF6838"/>
<path d="M5.53543 16.049L6.61279 16.7722C7.5024 17.3706 8.63416 17.3386 9.47577 16.7807L11.8033 18.337C12.9905 19.1349 14.6012 18.8074 15.3863 17.6245L16.1074 16.5493C16.8946 15.3535 16.5618 13.7407 15.3863 12.9492L13.0694 11.4014C13.2838 10.3934 12.8902 9.29685 11.9782 8.69098L10.8987 7.96563C9.71364 7.17202 8.10081 7.49735 7.30933 8.68458L4.81115 12.4553C4.02501 13.6447 4.35248 15.2618 5.53543 16.049" fill="#FF6838"/>
</svg>
