<svg width="64" height="51" viewBox="0 0 64 51" fill="none" xmlns="http://www.w3.org/2000/svg">
<path d="M61.7004 0.202536C61.2249 0.685572 59.8608 2.8902 59.1474 4.33931C57.971 6.77926 57.2702 9.08297 56.8697 11.944C56.7696 12.7119 56.707 14.9042 56.707 18.8799C56.707 24.6516 56.707 24.7011 56.9824 25.1346C57.3453 25.7044 57.8834 26.0016 58.7094 26.0883C59.5354 26.175 59.4978 25.8035 59.1474 29.9278C58.6343 36.0587 58.0711 46.3139 58.1838 47.6268C58.2589 48.63 58.8471 49.8686 59.4853 50.3888C60.8619 51.5158 62.6515 51.008 63.5276 49.2493C63.7278 48.8282 63.9406 48.1717 63.9781 47.7878C64.1158 46.6359 63.5526 36.4674 62.9644 29.3953C62.6641 25.7415 62.6515 25.3823 62.6515 12.9473C62.6515 0.52456 62.6515 0.239692 62.4138 0.115837C62.0759 -0.0575606 61.9507 -0.045175 61.7004 0.202536Z" fill="#FF6838"/>
<path d="M1.04223 2.5691C0.766904 2.86636 0.754389 2.99021 0.316372 10.2481C-0.0590708 16.4409 -0.0715856 16.7753 0.128651 17.5556C0.479064 18.9676 1.09229 19.7726 3.00705 21.3332C3.67033 21.8782 4.05829 22.547 4.15841 23.3025C4.19595 23.5998 4.08332 25.3957 3.90811 27.2906C3.28237 33.855 2.64412 44.5809 2.73172 46.996C2.78178 48.6557 2.9695 49.2502 3.72039 50.0924C4.7466 51.2443 6.19832 51.3062 7.31213 50.2411C8.22571 49.3865 8.60115 48.086 8.51355 46.191C8.48852 45.6089 8.40092 43.912 8.33834 42.4134C8.11308 37.8307 7.72512 32.0962 7.32465 27.7613C7.12441 25.47 6.98675 23.4387 7.03681 23.1786C7.21201 22.2126 7.625 21.6676 8.93905 20.7015C10.2156 19.7602 11.054 18.2864 11.1792 16.7753C11.2293 16.0817 10.5409 3.99344 10.4033 3.13884C10.3032 2.58149 9.96526 2.32139 9.37707 2.37093C8.98911 2.3957 8.86396 2.4824 8.71379 2.77966C8.53858 3.12645 8.55109 3.69619 8.78887 8.47701C8.96408 12.0688 9.01414 13.9143 8.92654 14.1496C8.75133 14.6574 8.18817 14.9051 7.63751 14.7317C7.39973 14.6574 7.13692 14.4716 7.06184 14.323C6.9492 14.1372 6.8616 12.3537 6.76148 8.50178L6.62382 2.95305L6.32346 2.64342C5.92299 2.22231 5.15959 2.25946 4.80918 2.71773C4.59642 3.0026 4.5714 3.46086 4.45876 8.29122C4.38367 11.1894 4.27104 13.7656 4.19595 14.0133C4.03326 14.6202 3.49512 14.9299 2.93196 14.7441C2.09347 14.4468 2.09347 14.4345 2.44388 7.61002C2.56903 5.15768 2.64412 3.06452 2.60658 2.96544C2.39382 2.34616 1.45522 2.11084 1.04223 2.5691Z" fill="#FF6838"/>
<path d="M31.2425 3.41082C31.0673 3.4356 30.4541 3.52229 29.8659 3.59661C27.9136 3.8567 25.2604 4.67415 23.3332 5.64022C21.4309 6.58152 19.0156 8.42697 17.3386 10.2105C11.5067 16.4404 10.1551 26.0021 14.0472 33.6935C17.1258 39.7996 22.9953 43.9983 29.9284 45.0882C31.2675 45.2987 34.7967 45.2987 36.1233 45.0882C44.9837 43.7134 52.017 37.1367 53.7691 28.5782C55.2959 21.1841 52.7179 13.5422 47.0361 8.60037C43.119 5.18196 37.9504 3.28697 32.7818 3.3489C32.106 3.36128 31.4177 3.38605 31.2425 3.41082ZM35.4349 8.60037C38.3884 9.07102 40.7162 10.0866 43.0314 11.8949C46.0975 14.2853 48.2751 17.9638 48.9134 21.8405C49.1011 22.9676 49.1011 25.6924 48.9134 26.8195C47.9497 32.6779 43.6822 37.5949 37.9379 39.4775C36.6113 39.9234 35.3473 40.134 33.6829 40.2083C27.3129 40.4808 21.4434 37.0252 18.6026 31.3278C17.4762 29.0861 16.9757 26.931 16.9757 24.33C16.9757 21.1222 17.8392 18.2239 19.5287 15.6849C22.2319 11.6472 26.0113 9.29396 31.1174 8.50128C31.9058 8.37743 34.4213 8.42697 35.4349 8.60037Z" fill="#FF6838"/>
<path d="M32.1167 12.7C30.227 12.9106 28.8879 13.3069 27.3736 14.1244C24.5328 15.6354 22.4803 18.2488 21.5793 21.5186C21.1913 22.8934 21.2038 25.7668 21.5793 27.1788C21.9547 28.5288 22.9559 30.5105 23.8319 31.6004C26.7103 35.1674 31.5285 36.7404 36.0213 35.5885C39.9134 34.5977 43.1172 31.4889 44.3311 27.5503C44.6565 26.5223 44.6815 26.2746 44.6815 24.3301C44.6815 22.3855 44.6565 22.1378 44.3311 21.1098C43.0546 16.9483 39.588 13.7652 35.4957 12.9601C34.457 12.7496 32.805 12.6257 32.1167 12.7Z" fill="#FF6838"/>
</svg>
