<svg width="64" height="64" viewBox="0 0 64 64" fill="none" xmlns="http://www.w3.org/2000/svg">
<path fill-rule="evenodd" clip-rule="evenodd" d="M5.80128 0C5.12962 0 4.52946 0.466116 4.29868 1.16697L0.194809 13.6306C0.0659379 14.022 0 14.4354 0 14.8523V19.8096C0 22.6148 2.0467 24.8889 4.57143 24.8889C7.09616 24.8889 9.14293 22.6148 9.14293 19.8096C9.14293 22.6148 11.1895 24.8889 13.7143 24.8889C16.2389 24.8889 18.2857 22.6148 18.2857 19.8096C18.2857 22.6148 20.3324 24.8889 22.8571 24.8889C25.3806 24.8889 27.4265 22.6171 27.4286 19.8137C27.4306 22.6171 29.4764 24.8889 32 24.8889C34.5248 24.8889 36.5714 22.6148 36.5714 19.8096C36.5714 22.6148 38.6181 24.8889 41.1429 24.8889C43.6663 24.8889 45.7122 22.6171 45.7143 19.8137C45.7163 22.6171 47.7623 24.8889 50.2857 24.8889C52.8105 24.8889 54.8571 22.6148 54.8571 19.8096C54.8571 22.6148 56.9038 24.8889 59.4286 24.8889C61.9532 24.8889 64 22.6148 64 19.8096V14.8523C64 14.4354 63.934 14.022 63.8052 13.6306L59.7013 1.16697C59.4706 0.466098 58.8704 0 58.1988 0H5.80128Z" fill="#FF6838"/>
<path fill-rule="evenodd" clip-rule="evenodd" d="M5.3329 27.5131V39.1094H2.66623C2.17532 39.1094 1.77734 39.5074 1.77734 39.9983V41.776C1.77734 42.2669 2.17532 42.6649 2.66623 42.6649H61.3329C61.8237 42.6649 62.2218 42.2669 62.2218 41.776V39.9983C62.2218 39.5074 61.8237 39.1094 61.3329 39.1094H58.6662V27.5131C57.3091 27.3666 56.103 26.8322 55.1107 26.0367V39.1094H8.88845V26.0367C7.8961 26.8322 6.69005 27.3666 5.3329 27.5131ZM55.9541 23.1094C56.1269 23.3336 56.3169 23.5408 56.5219 23.7288C57.1261 24.2822 57.8604 24.6667 58.6662 24.8169V23.1094H55.9541ZM5.3329 24.8169V23.1094H8.04508C7.87228 23.3336 7.68223 23.5408 7.47725 23.7288C6.87306 24.2822 6.13873 24.6667 5.3329 24.8169V24.8169ZM4.44401 44.4427C3.95309 44.4427 3.55512 44.8408 3.55512 45.3316V62.2205C3.55512 63.2024 4.35107 63.9983 5.3329 63.9983H58.6662C59.6481 63.9983 60.444 63.2024 60.444 62.2205V45.3316C60.444 44.8408 60.046 44.4427 59.5551 44.4427H4.44401Z" fill="#FF6838"/>
<path d="M10.668 34.6662C10.668 34.1754 11.066 33.7773 11.5569 33.7773H16.8902C17.381 33.7773 17.7791 34.1754 17.7791 34.6662V38.2218C17.7791 38.7126 17.381 39.1107 16.8902 39.1107H11.5569C11.066 39.1107 10.668 38.7126 10.668 38.2218V34.6662Z" fill="#FF6838"/>
<path d="M14.2227 36.4436C14.2227 35.9527 14.6207 35.5547 15.1115 35.5547H20.4449C20.9357 35.5547 21.3338 35.9527 21.3338 36.4436V38.2214C21.3338 38.7122 20.9357 39.1102 20.4449 39.1102H15.1115C14.6207 39.1102 14.2227 38.7122 14.2227 38.2214V36.4436Z" fill="#FF6838"/>
<path d="M28.4427 36.444C28.4427 37.9167 27.2488 39.1107 25.776 39.1107C24.3033 39.1107 23.1094 37.9167 23.1094 36.444C23.1094 34.9713 24.3033 33.7773 25.776 33.7773C27.2488 33.7773 28.4427 34.9713 28.4427 36.444Z" fill="#FF6838"/>
</svg>
